<svg id="Layer_1" data-name="Layer 1" xmlns="http://www.w3.org/2000/svg" viewBox="0 0 283.46 283.46"><defs><style>.cls-1,.cls-3{fill:none;stroke:#fff;stroke-miterlimit:10;}.cls-1{stroke-width:3px;}.cls-2{fill:#fff;}.cls-3{stroke-width:2px;}</style></defs><title>grid_counting</title><polyline class="cls-1" points="20.25 275.29 20.25 17.05 280.57 17.05"/><polyline class="cls-1" points="30.28 270.52 19.72 281 9.15 270.52"/><polyline class="cls-1" points="270.44 6.04 281 16.52 270.44 26.99"/><polyline class="cls-1" points="20.36 218.01 20.36 17.25 216.72 17.25"/><line class="cls-1" x1="20.36" y1="177.86" x2="216.72" y2="177.86"/><line class="cls-1" x1="20.36" y1="137.7" x2="216.72" y2="137.7"/><line class="cls-1" x1="20.36" y1="97.55" x2="216.72" y2="97.55"/><line class="cls-1" x1="20.36" y1="57.4" x2="216.72" y2="57.4"/><line class="cls-1" x1="177.45" y1="17.25" x2="177.45" y2="218.01"/><line class="cls-1" x1="138.18" y1="17.25" x2="138.18" y2="218.01"/><line class="cls-1" x1="98.91" y1="17.25" x2="98.91" y2="218.01"/><line class="cls-1" x1="59.63" y1="17.25" x2="59.63" y2="218.01"/><circle class="cls-2" cx="187.36" cy="37.32" r="3.5"/><circle class="cls-2" cx="207.19" cy="37.32" r="3.5"/><circle class="cls-2" cx="197.27" cy="37.32" r="3.5"/><circle class="cls-2" cx="190.07" cy="190.92" r="3.5" transform="translate(-79.33 190.32) rotate(-45)"/><circle class="cls-2" cx="204.1" cy="204.95" r="3.5" transform="translate(-85.14 204.35) rotate(-45)"/><circle class="cls-2" cx="197.09" cy="197.93" r="3.5" transform="translate(-82.23 197.33) rotate(-45)"/><circle class="cls-2" cx="157.81" cy="208.21" r="3.5"/><circle class="cls-2" cx="157.81" cy="188.37" r="3.5"/><circle class="cls-2" cx="157.81" cy="198.29" r="3.5"/><circle class="cls-2" cx="187.36" cy="157.78" r="3.5"/><circle class="cls-2" cx="207.19" cy="157.78" r="3.5"/><circle class="cls-2" cx="197.27" cy="157.78" r="3.5"/><circle class="cls-2" cx="187.36" cy="117.63" r="3.5"/><circle class="cls-2" cx="207.19" cy="117.63" r="3.5"/><circle class="cls-2" cx="197.27" cy="117.63" r="3.5"/><circle class="cls-2" cx="187.36" cy="77.18" r="3.5"/><circle class="cls-2" cx="207.19" cy="77.18" r="3.5"/><circle class="cls-2" cx="197.27" cy="77.18" r="3.5"/><circle class="cls-2" cx="118.54" cy="208.21" r="3.5"/><circle class="cls-2" cx="118.54" cy="188.37" r="3.5"/><circle class="cls-2" cx="118.54" cy="198.29" r="3.5"/><circle class="cls-2" cx="79.27" cy="208.21" r="3.5"/><circle class="cls-2" cx="79.27" cy="188.37" r="3.5"/><circle class="cls-2" cx="79.27" cy="198.29" r="3.5"/><circle class="cls-2" cx="40" cy="208.21" r="3.5"/><circle class="cls-2" cx="40" cy="188.37" r="3.5"/><circle class="cls-2" cx="40" cy="198.29" r="3.5"/><polyline class="cls-3" points="216.9 49.62 224.32 57.04 216.9 64.47"/><polyline class="cls-3" points="66.86 218.01 59.44 225.43 52.01 218.01"/><polyline class="cls-3" points="106.52 218.01 99.09 225.43 91.67 218.01"/><polyline class="cls-3" points="146.18 218.01 138.75 225.43 131.33 218.01"/><polyline class="cls-3" points="184.67 218.01 177.24 225.43 169.82 218.01"/><polyline class="cls-3" points="216.9 90.44 224.32 97.87 216.9 105.29"/><polyline class="cls-3" points="216.9 130.1 224.32 137.53 216.9 144.95"/><polyline class="cls-3" points="216.9 170.93 224.32 178.35 216.9 185.77"/><path class="cls-2" d="M22.14,1.44V8.29h2a.44.44,0,0,1,.29.08.26.26,0,0,1,.09.21.27.27,0,0,1-.09.21.43.43,0,0,1-.29.08H19.6a.43.43,0,0,1-.29-.08.27.27,0,0,1-.09-.21.26.26,0,0,1,.09-.21.44.44,0,0,1,.29-.08h2V1.44h-2a.44.44,0,0,1-.29-.08.26.26,0,0,1-.09-.21.26.26,0,0,1,.09-.21A.44.44,0,0,1,19.6.87h4.51a.44.44,0,0,1,.29.08.26.26,0,0,1,.09.21.26.26,0,0,1-.09.21.44.44,0,0,1-.29.08Z"/><path class="cls-2" d="M28.4,2.95v.87A4.14,4.14,0,0,1,29.48,3a2.5,2.5,0,0,1,1.09-.23,2.56,2.56,0,0,1,1.2.28,2,2,0,0,1,.69.68,1.76,1.76,0,0,1,.31,1V8.29h.49a.44.44,0,0,1,.29.08.26.26,0,0,1,.09.21.27.27,0,0,1-.09.21.43.43,0,0,1-.29.08H31.72a.44.44,0,0,1-.3-.08.27.27,0,0,1-.09-.21.26.26,0,0,1,.09-.21.45.45,0,0,1,.3-.08h.48V4.77a1.36,1.36,0,0,0-.44-1,1.66,1.66,0,0,0-1.19-.42,2,2,0,0,0-1,.23A5.28,5.28,0,0,0,28.4,4.69v3.6H29a.44.44,0,0,1,.29.08.26.26,0,0,1,.09.21.27.27,0,0,1-.09.21.43.43,0,0,1-.29.08H27.17a.43.43,0,0,1-.29-.08.27.27,0,0,1-.09-.21.26.26,0,0,1,.09-.21.44.44,0,0,1,.29-.08h.65V3.53h-.49A.43.43,0,0,1,27,3.44.28.28,0,0,1,27,3.23.27.27,0,0,1,27,3a.43.43,0,0,1,.29-.08Z"/><path class="cls-2" d="M41.46.29v8h.77a.45.45,0,0,1,.3.08.26.26,0,0,1,.09.21.27.27,0,0,1-.09.21.44.44,0,0,1-.3.08H40.88V7.72a3,3,0,0,1-2.54,1.37A3,3,0,0,1,35.73,7.5a3.23,3.23,0,0,1,0-3.16,3,3,0,0,1,1.13-1.18,2.93,2.93,0,0,1,1.5-.42,3.06,3.06,0,0,1,2.53,1.37V.87h-.77a.44.44,0,0,1-.3-.08.28.28,0,0,1-.09-.21.27.27,0,0,1,.09-.21.44.44,0,0,1,.3-.08Zm-.58,5.63a2.53,2.53,0,0,0-.74-1.85,2.44,2.44,0,0,0-3.52,0,2.53,2.53,0,0,0-.74,1.85,2.54,2.54,0,0,0,.74,1.84,2.43,2.43,0,0,0,3.52,0A2.54,2.54,0,0,0,40.88,5.92Z"/><path class="cls-2" d="M50.16,6H44.31a2.78,2.78,0,0,0,.93,1.79,2.85,2.85,0,0,0,1.94.68,4.67,4.67,0,0,0,1.35-.21,3.46,3.46,0,0,0,1.15-.56.39.39,0,0,1,.23-.1.26.26,0,0,1,.19.09.28.28,0,0,1,.08.2.32.32,0,0,1-.11.23,3.07,3.07,0,0,1-1.17.64,5.1,5.1,0,0,1-1.72.3,3.38,3.38,0,0,1-2.46-1,3.16,3.16,0,0,1-1-2.34,2.88,2.88,0,0,1,.93-2.15,3.17,3.17,0,0,1,2.29-.9,3.12,3.12,0,0,1,2.32.92A3.2,3.2,0,0,1,50.16,6Zm-.58-.58a2.5,2.5,0,0,0-.9-1.54,2.83,2.83,0,0,0-3.46,0,2.52,2.52,0,0,0-.9,1.55Z"/><path class="cls-2" d="M55.84,5.77l2.63,2.52a1.32,1.32,0,0,1,.33,0,.24.24,0,0,1,.12.1.29.29,0,0,1,.05.16.27.27,0,0,1-.09.21.44.44,0,0,1-.3.08H56.74a.44.44,0,0,1-.3-.08.27.27,0,0,1-.09-.21.26.26,0,0,1,.09-.21.45.45,0,0,1,.3-.08h.95L55.45,6.15,53.23,8.29h1a.44.44,0,0,1,.29.08.26.26,0,0,1,.09.21.27.27,0,0,1-.09.21.43.43,0,0,1-.29.08H52.32A.43.43,0,0,1,52,8.78a.27.27,0,0,1-.09-.21A.29.29,0,0,1,52,8.41a.25.25,0,0,1,.12-.1,1.27,1.27,0,0,1,.32,0l2.63-2.52L52.73,3.53a1,1,0,0,1-.31,0,.27.27,0,0,1-.12-.1.29.29,0,0,1-.05-.16A.27.27,0,0,1,52.34,3a.44.44,0,0,1,.3-.08H54.2a.43.43,0,0,1,.3.08.28.28,0,0,1,.09.21.27.27,0,0,1-.09.21.43.43,0,0,1-.3.08h-.68l1.93,1.87L57.4,3.53h-.68a.44.44,0,0,1-.3-.08.27.27,0,0,1-.09-.21A.27.27,0,0,1,56.42,3a.44.44,0,0,1,.3-.08h1.57a.43.43,0,0,1,.29.08.28.28,0,0,1,0,.37.27.27,0,0,1-.12.1,1,1,0,0,1-.31,0Z"/><path class="cls-2" d="M72.55,2.95V8.29h2.26a.45.45,0,0,1,.3.08.26.26,0,0,1,.09.21.27.27,0,0,1-.09.21.44.44,0,0,1-.3.08H69.72a.43.43,0,0,1-.29-.08.27.27,0,0,1-.09-.21.26.26,0,0,1,.09-.21.44.44,0,0,1,.29-.08H72V3.53H70.31a.44.44,0,0,1-.3-.08.26.26,0,0,1-.09-.21A.28.28,0,0,1,70,3a.44.44,0,0,1,.3-.08Zm0-2.95V1.48h-.85V0Z"/><path class="cls-2" d="M78.79,2.95v.87A4.14,4.14,0,0,1,79.88,3,2.5,2.5,0,0,1,81,2.74a2.56,2.56,0,0,1,1.2.28,2,2,0,0,1,.69.68,1.76,1.76,0,0,1,.31,1V8.29h.49a.44.44,0,0,1,.29.08.26.26,0,0,1,.09.21.27.27,0,0,1-.09.21.43.43,0,0,1-.29.08H82.12a.44.44,0,0,1-.3-.08.27.27,0,0,1-.09-.21.26.26,0,0,1,.09-.21.45.45,0,0,1,.3-.08h.48V4.77a1.36,1.36,0,0,0-.44-1A1.66,1.66,0,0,0,81,3.32a2,2,0,0,0-1,.23,5.28,5.28,0,0,0-1.19,1.14v3.6h.65a.44.44,0,0,1,.29.08.26.26,0,0,1,.09.21.27.27,0,0,1-.09.21.43.43,0,0,1-.29.08H77.57a.43.43,0,0,1-.29-.08.27.27,0,0,1-.09-.21.26.26,0,0,1,.09-.21.44.44,0,0,1,.29-.08h.65V3.53h-.49a.43.43,0,0,1-.29-.08.28.28,0,0,1-.09-.21A.27.27,0,0,1,77.44,3a.43.43,0,0,1,.29-.08Z"/><path class="cls-2" d="M99.34,3.32A.42.42,0,0,1,99.43,3a.27.27,0,0,1,.21-.09.28.28,0,0,1,.21.09.44.44,0,0,1,.08.3v1a.43.43,0,0,1-.08.29.28.28,0,0,1-.21.09.27.27,0,0,1-.19-.08.37.37,0,0,1-.09-.25.92.92,0,0,0-.42-.68,2.58,2.58,0,0,0-1.48-.38,2.5,2.5,0,0,0-1.5.39.82.82,0,0,0-.4.66.79.79,0,0,0,.48.68,3.54,3.54,0,0,0,1.24.29,8.46,8.46,0,0,1,1.66.29,2.1,2.1,0,0,1,1,.66,1.48,1.48,0,0,1,.32.92,1.66,1.66,0,0,1-.7,1.3,3.22,3.22,0,0,1-2.06.57,3.47,3.47,0,0,1-2.23-.69,1,1,0,0,1,0,.3.25.25,0,0,1-.1.12.28.28,0,0,1-.16,0,.27.27,0,0,1-.21-.09.43.43,0,0,1-.08-.29V7.3A.44.44,0,0,1,94.74,7,.26.26,0,0,1,95,6.92a.28.28,0,0,1,.21.09.31.31,0,0,1,.09.23.86.86,0,0,0,.16.53,1.73,1.73,0,0,0,.76.54,3.37,3.37,0,0,0,1.28.22,2.74,2.74,0,0,0,1.67-.42,1.15,1.15,0,0,0,.55-.88,1,1,0,0,0-.55-.85,4.22,4.22,0,0,0-1.63-.43,6.62,6.62,0,0,1-1.53-.29,1.56,1.56,0,0,1-.72-.53A1.27,1.27,0,0,1,95,4.35a1.32,1.32,0,0,1,.72-1.17,3.3,3.3,0,0,1,1.73-.43A3.05,3.05,0,0,1,99.34,3.32Z"/><path class="cls-2" d="M109,6H103.1A2.78,2.78,0,0,0,104,7.84a2.85,2.85,0,0,0,1.94.68,4.67,4.67,0,0,0,1.35-.21,3.46,3.46,0,0,0,1.15-.56.39.39,0,0,1,.23-.1.26.26,0,0,1,.19.09.28.28,0,0,1,.08.2.32.32,0,0,1-.11.23,3.07,3.07,0,0,1-1.17.64,5.1,5.1,0,0,1-1.72.3,3.38,3.38,0,0,1-2.46-1,3.16,3.16,0,0,1-1-2.34,2.88,2.88,0,0,1,.93-2.15,3.17,3.17,0,0,1,2.29-.9,3.12,3.12,0,0,1,2.32.92A3.2,3.2,0,0,1,109,6Zm-.58-.58a2.5,2.5,0,0,0-.9-1.54,2.83,2.83,0,0,0-3.46,0,2.52,2.52,0,0,0-.9,1.55Z"/><path class="cls-2" d="M116.18,4V2.95h1.35a.43.43,0,0,1,.29.08.28.28,0,0,1,.09.21.27.27,0,0,1-.09.21.43.43,0,0,1-.29.08h-.77V9.26a2.11,2.11,0,0,1-.25,1,2.27,2.27,0,0,1-.55.62,3,3,0,0,1-.7.46,2.14,2.14,0,0,1-.84.14h-1.63a.44.44,0,0,1-.29-.08.26.26,0,0,1-.09-.21.28.28,0,0,1,.09-.21.43.43,0,0,1,.29-.08h1.65a1.66,1.66,0,0,0,.91-.26,2,2,0,0,0,.67-.76,1.57,1.57,0,0,0,.15-.73V7.46a2.82,2.82,0,0,1-2.38,1.26,2.75,2.75,0,0,1-2-.88,2.92,2.92,0,0,1-.86-2.12,2.91,2.91,0,0,1,.86-2.11,2.76,2.76,0,0,1,2-.87A2.83,2.83,0,0,1,116.18,4Zm0,1.73A2.33,2.33,0,0,0,115.48,4a2.31,2.31,0,0,0-3.31,0,2.34,2.34,0,0,0-.69,1.71,2.35,2.35,0,0,0,.69,1.71,2.31,2.31,0,0,0,3.31,0A2.34,2.34,0,0,0,116.18,5.73Z"/><path class="cls-2" d="M120,2.95v.58a2.06,2.06,0,0,1,1.47-.79,1.32,1.32,0,0,1,.78.24,1.77,1.77,0,0,1,.56.71,3,3,0,0,1,.78-.71,1.52,1.52,0,0,1,.79-.24,1.28,1.28,0,0,1,1,.4,1.63,1.63,0,0,1,.49,1.13v4h.49a.44.44,0,0,1,.29.08.26.26,0,0,1,.09.21.27.27,0,0,1-.09.21.43.43,0,0,1-.29.08h-1.06V4.33a1,1,0,0,0-.27-.72.82.82,0,0,0-.62-.29,1.19,1.19,0,0,0-.66.24,3.27,3.27,0,0,0-.79.93V8.29h.48a.44.44,0,0,1,.29.08.26.26,0,0,1,.09.21.27.27,0,0,1-.09.21.43.43,0,0,1-.29.08h-1.06V4.37a1.08,1.08,0,0,0-.27-.76.8.8,0,0,0-.6-.3,1.1,1.1,0,0,0-.61.2,3.49,3.49,0,0,0-.87,1V8.29h.49a.44.44,0,0,1,.29.08.26.26,0,0,1,.09.21.27.27,0,0,1-.09.21.43.43,0,0,1-.29.08H119a.43.43,0,0,1-.29-.08.27.27,0,0,1-.09-.21.26.26,0,0,1,.09-.21.44.44,0,0,1,.29-.08h.49V3.53H119a.43.43,0,0,1-.29-.08.28.28,0,0,1-.09-.21.27.27,0,0,1,.09-.21.43.43,0,0,1,.29-.08Z"/><path class="cls-2" d="M134.15,6H128.3a2.78,2.78,0,0,0,.93,1.79,2.85,2.85,0,0,0,1.94.68,4.67,4.67,0,0,0,1.35-.21,3.46,3.46,0,0,0,1.15-.56.39.39,0,0,1,.23-.1.26.26,0,0,1,.19.09.28.28,0,0,1,.08.2.32.32,0,0,1-.11.23,3.07,3.07,0,0,1-1.17.64,5.1,5.1,0,0,1-1.72.3,3.38,3.38,0,0,1-2.46-1,3.16,3.16,0,0,1-1-2.34,2.88,2.88,0,0,1,.93-2.15,3.17,3.17,0,0,1,2.29-.9,3.12,3.12,0,0,1,2.32.92A3.2,3.2,0,0,1,134.15,6Zm-.58-.58a2.5,2.5,0,0,0-.9-1.54,2.83,2.83,0,0,0-3.46,0,2.52,2.52,0,0,0-.9,1.55Z"/><path class="cls-2" d="M137.59,2.95v.87A4.14,4.14,0,0,1,138.68,3a2.5,2.5,0,0,1,1.09-.23A2.56,2.56,0,0,1,141,3a2,2,0,0,1,.69.68,1.76,1.76,0,0,1,.31,1V8.29h.49a.44.44,0,0,1,.29.08.26.26,0,0,1,.09.21.27.27,0,0,1-.09.21.43.43,0,0,1-.29.08h-1.54a.44.44,0,0,1-.3-.08.27.27,0,0,1-.09-.21.26.26,0,0,1,.09-.21.45.45,0,0,1,.3-.08h.48V4.77a1.36,1.36,0,0,0-.44-1,1.66,1.66,0,0,0-1.19-.42,2,2,0,0,0-1,.23,5.28,5.28,0,0,0-1.19,1.14v3.6h.65a.44.44,0,0,1,.29.08.26.26,0,0,1,.09.21.27.27,0,0,1-.09.21.43.43,0,0,1-.29.08h-1.87a.43.43,0,0,1-.29-.08.27.27,0,0,1-.09-.21.26.26,0,0,1,.09-.21.44.44,0,0,1,.29-.08H137V3.53h-.49a.43.43,0,0,1-.29-.08.28.28,0,0,1-.09-.21.27.27,0,0,1,.09-.21.43.43,0,0,1,.29-.08Z"/><path class="cls-2" d="M146.67,2.95h3.12a.43.43,0,0,1,.29.08.28.28,0,0,1,.09.21.27.27,0,0,1-.09.21.43.43,0,0,1-.29.08h-3.12V7.35a1,1,0,0,0,.4.83,1.78,1.78,0,0,0,1.17.33,5.06,5.06,0,0,0,1.26-.17,4.26,4.26,0,0,0,1.05-.39.45.45,0,0,1,.23-.09.26.26,0,0,1,.19.09.28.28,0,0,1,.08.2.27.27,0,0,1-.09.19,2.86,2.86,0,0,1-1.06.49,5.43,5.43,0,0,1-1.62.26,2.5,2.5,0,0,1-1.6-.47,1.54,1.54,0,0,1-.59-1.27V3.53H145a.43.43,0,0,1-.29-.08.28.28,0,0,1-.09-.21.27.27,0,0,1,.09-.21.43.43,0,0,1,.29-.08h1.06V1.25a.43.43,0,0,1,.08-.29.27.27,0,0,1,.21-.09.28.28,0,0,1,.21.09.43.43,0,0,1,.08.29Z"/><path class="cls-2" d="M3.84,143.78h6.85v-2a.44.44,0,0,1,.08-.29.26.26,0,0,1,.21-.09.27.27,0,0,1,.21.09.43.43,0,0,1,.08.29v4.51a.43.43,0,0,1-.08.29.27.27,0,0,1-.21.09.26.26,0,0,1-.21-.09.44.44,0,0,1-.08-.29v-2H3.84v2a.44.44,0,0,1-.08.29.29.29,0,0,1-.42,0,.44.44,0,0,1-.08-.29v-4.51a.44.44,0,0,1,.08-.29.29.29,0,0,1,.42,0,.44.44,0,0,1,.08.29Z"/><path class="cls-2" d="M5.34,137.53h.87a4.14,4.14,0,0,1-.84-1.09,2.5,2.5,0,0,1-.23-1.09,2.56,2.56,0,0,1,.28-1.2,2,2,0,0,1,.68-.69,1.76,1.76,0,0,1,1-.31h3.62v-.49a.44.44,0,0,1,.08-.29.26.26,0,0,1,.21-.09.27.27,0,0,1,.21.09.43.43,0,0,1,.08.29v1.54a.44.44,0,0,1-.08.3.27.27,0,0,1-.21.09.26.26,0,0,1-.21-.09.45.45,0,0,1-.08-.3v-.48H7.17a1.36,1.36,0,0,0-1,.44,1.66,1.66,0,0,0-.42,1.19,2,2,0,0,0,.23,1,5.28,5.28,0,0,0,1.14,1.19h3.6v-.65a.44.44,0,0,1,.08-.29.26.26,0,0,1,.21-.09.27.27,0,0,1,.21.09.43.43,0,0,1,.08.29v1.87a.43.43,0,0,1-.08.29.27.27,0,0,1-.21.09.26.26,0,0,1-.21-.09.44.44,0,0,1-.08-.29v-.65H5.93v.49a.43.43,0,0,1-.08.29.28.28,0,0,1-.21.09.27.27,0,0,1-.21-.09.43.43,0,0,1-.08-.29Z"/><path class="cls-2" d="M2.69,124.46h8v-.77a.45.45,0,0,1,.08-.3.26.26,0,0,1,.21-.09.27.27,0,0,1,.21.09.44.44,0,0,1,.08.3V125H10.12a3,3,0,0,1,1.37,2.54A3,3,0,0,1,9.9,130.2a3.23,3.23,0,0,1-3.16,0,3,3,0,0,1-1.18-1.13,2.93,2.93,0,0,1-.42-1.5A3.06,3.06,0,0,1,6.51,125H3.27v.77a.44.44,0,0,1-.08.3.28.28,0,0,1-.21.09.27.27,0,0,1-.21-.09.44.44,0,0,1-.08-.3Zm5.63.58a2.53,2.53,0,0,0-1.85.74,2.44,2.44,0,0,0,0,3.52,2.53,2.53,0,0,0,1.85.74,2.54,2.54,0,0,0,1.84-.74,2.43,2.43,0,0,0,0-3.52A2.54,2.54,0,0,0,8.32,125Z"/><path class="cls-2" d="M8.44,115.77v5.85a2.78,2.78,0,0,0,1.79-.93,2.85,2.85,0,0,0,.68-1.94,4.67,4.67,0,0,0-.21-1.35,3.46,3.46,0,0,0-.56-1.15A.39.39,0,0,1,10,116a.26.26,0,0,1,.09-.19.28.28,0,0,1,.2-.08.32.32,0,0,1,.23.11,3.07,3.07,0,0,1,.64,1.17,5.1,5.1,0,0,1,.3,1.72,3.38,3.38,0,0,1-1,2.46,3.16,3.16,0,0,1-2.34,1A2.88,2.88,0,0,1,6,121.27a3.17,3.17,0,0,1-.9-2.29,3.12,3.12,0,0,1,.92-2.32A3.2,3.2,0,0,1,8.44,115.77Zm-.58.58a2.5,2.5,0,0,0-1.54.9,2.83,2.83,0,0,0,0,3.46,2.52,2.52,0,0,0,1.55.9Z"/><path class="cls-2" d="M8.17,110.08l2.52-2.63a1.32,1.32,0,0,1,0-.33.24.24,0,0,1,.1-.12A.29.29,0,0,1,11,107a.27.27,0,0,1,.21.09.44.44,0,0,1,.08.3v1.85a.44.44,0,0,1-.08.3.27.27,0,0,1-.21.09.26.26,0,0,1-.21-.09.45.45,0,0,1-.08-.3v-.95l-2.14,2.23,2.14,2.22v-1a.44.44,0,0,1,.08-.29.26.26,0,0,1,.21-.09.27.27,0,0,1,.21.09.43.43,0,0,1,.08.29v1.87a.43.43,0,0,1-.08.29A.27.27,0,0,1,11,114a.29.29,0,0,1-.16-.05.25.25,0,0,1-.1-.12,1.27,1.27,0,0,1,0-.32l-2.52-2.63L5.93,113.2a1,1,0,0,1,0,.31.27.27,0,0,1-.1.12.29.29,0,0,1-.16.05.27.27,0,0,1-.21-.09.44.44,0,0,1-.08-.3v-1.57a.43.43,0,0,1,.08-.3.28.28,0,0,1,.21-.09.27.27,0,0,1,.21.09.43.43,0,0,1,.08.3v.68l1.87-1.93-1.87-1.95v.68a.44.44,0,0,1-.08.3.27.27,0,0,1-.21.09.27.27,0,0,1-.21-.09.44.44,0,0,1-.08-.3v-1.57a.43.43,0,0,1,.08-.29.28.28,0,0,1,.37,0,.27.27,0,0,1,.1.12,1,1,0,0,1,0,.31Z"/><path class="cls-2" d="M8.32,90.47a3,3,0,0,1,2.24.94,3.23,3.23,0,0,1,0,4.54,3,3,0,0,1-2.24.94,3.06,3.06,0,0,1-2.25-.94,3.23,3.23,0,0,1,0-4.54A3,3,0,0,1,8.32,90.47Zm0,.58a2.49,2.49,0,0,0-1.84.77,2.66,2.66,0,0,0,0,3.72,2.57,2.57,0,0,0,3.67,0,2.65,2.65,0,0,0,0-3.72A2.49,2.49,0,0,0,8.32,91Z"/><path class="cls-2" d="M5.93,85.66h4.76V83.13a.44.44,0,0,1,.08-.29.26.26,0,0,1,.21-.09.27.27,0,0,1,.21.09.43.43,0,0,1,.08.29v4.49a.43.43,0,0,1-.08.29A.27.27,0,0,1,11,88a.26.26,0,0,1-.21-.09.44.44,0,0,1-.08-.29V86.24H5.93v1.24a.43.43,0,0,1-.08.29.28.28,0,0,1-.21.09.27.27,0,0,1-.21-.09.43.43,0,0,1-.08-.29V86.24H4.48a1.65,1.65,0,0,1-1.26-.59,2.23,2.23,0,0,1-.53-1.56,10.82,10.82,0,0,1,.15-1.74A.89.89,0,0,1,3,81.93a.28.28,0,0,1,.2-.07.27.27,0,0,1,.2.08.3.3,0,0,1,.08.22,1.37,1.37,0,0,1,0,.18,11.9,11.9,0,0,0-.16,1.74,1.66,1.66,0,0,0,.37,1.16,1.11,1.11,0,0,0,.84.41h.87V83a.43.43,0,0,1,.08-.29.28.28,0,0,1,.21-.09.27.27,0,0,1,.21.09.43.43,0,0,1,.08.29Z"/><path class="cls-2" d="M5.72,66.58a.42.42,0,0,1-.29-.08.27.27,0,0,1-.09-.21.28.28,0,0,1,.09-.21.44.44,0,0,1,.3-.08h1a.43.43,0,0,1,.29.08.28.28,0,0,1,.09.21.27.27,0,0,1-.08.19.37.37,0,0,1-.25.09A.92.92,0,0,0,6.1,67a2.58,2.58,0,0,0-.38,1.48A2.5,2.5,0,0,0,6.11,70a.82.82,0,0,0,.66.4.79.79,0,0,0,.68-.48,3.54,3.54,0,0,0,.29-1.24A8.46,8.46,0,0,1,8,67a2.1,2.1,0,0,1,.66-1,1.48,1.48,0,0,1,.92-.32,1.66,1.66,0,0,1,1.3.7,3.22,3.22,0,0,1,.57,2.06,3.47,3.47,0,0,1-.69,2.23,1,1,0,0,1,.3,0,.25.25,0,0,1,.12.1.28.28,0,0,1,0,.16.27.27,0,0,1-.09.21.43.43,0,0,1-.29.08H9.7a.44.44,0,0,1-.29-.08A.26.26,0,0,1,9.32,71a.28.28,0,0,1,.09-.21.31.31,0,0,1,.23-.09.86.86,0,0,0,.53-.16,1.73,1.73,0,0,0,.54-.76,3.37,3.37,0,0,0,.22-1.28,2.74,2.74,0,0,0-.42-1.67,1.15,1.15,0,0,0-.88-.55,1,1,0,0,0-.85.55,4.22,4.22,0,0,0-.43,1.63A6.62,6.62,0,0,1,8,70a1.56,1.56,0,0,1-.53.72,1.27,1.27,0,0,1-.77.26,1.32,1.32,0,0,1-1.17-.72,3.3,3.3,0,0,1-.43-1.73A3.05,3.05,0,0,1,5.72,66.58Z"/><path class="cls-2" d="M8.44,57v5.85a2.78,2.78,0,0,0,1.79-.93A2.85,2.85,0,0,0,10.91,60a4.67,4.67,0,0,0-.21-1.35,3.46,3.46,0,0,0-.56-1.15.39.39,0,0,1-.1-.23.26.26,0,0,1,.09-.19.28.28,0,0,1,.2-.08.32.32,0,0,1,.23.11,3.07,3.07,0,0,1,.64,1.17,5.1,5.1,0,0,1,.3,1.72,3.38,3.38,0,0,1-1,2.46,3.16,3.16,0,0,1-2.34,1A2.88,2.88,0,0,1,6,62.48a3.17,3.17,0,0,1-.9-2.29,3.12,3.12,0,0,1,.92-2.32A3.2,3.2,0,0,1,8.44,57Zm-.58.58a2.5,2.5,0,0,0-1.54.9,2.83,2.83,0,0,0,0,3.46,2.52,2.52,0,0,0,1.55.9Z"/><path class="cls-2" d="M6.4,49.75H5.34V48.4a.43.43,0,0,1,.08-.29A.28.28,0,0,1,5.64,48a.27.27,0,0,1,.21.09.43.43,0,0,1,.08.29v.77h5.73a2.11,2.11,0,0,1,1,.25,2.27,2.27,0,0,1,.62.55,3,3,0,0,1,.46.7,2.14,2.14,0,0,1,.14.84v1.63a.44.44,0,0,1-.08.29.26.26,0,0,1-.21.09.28.28,0,0,1-.21-.09.43.43,0,0,1-.08-.29V51.48a1.66,1.66,0,0,0-.26-.91,2,2,0,0,0-.76-.67,1.57,1.57,0,0,0-.73-.15H9.86a2.82,2.82,0,0,1,1.26,2.38,2.75,2.75,0,0,1-.88,2A2.92,2.92,0,0,1,8.13,55,2.91,2.91,0,0,1,6,54.17a2.76,2.76,0,0,1-.87-2A2.83,2.83,0,0,1,6.4,49.75Zm1.73,0a2.33,2.33,0,0,0-1.71.69,2.31,2.31,0,0,0,0,3.31,2.34,2.34,0,0,0,1.71.69,2.35,2.35,0,0,0,1.71-.69,2.31,2.31,0,0,0,0-3.31A2.34,2.34,0,0,0,8.13,49.75Z"/><path class="cls-2" d="M5.34,45.89h.58a2.06,2.06,0,0,1-.79-1.47,1.32,1.32,0,0,1,.24-.78,1.77,1.77,0,0,1,.71-.56,3,3,0,0,1-.71-.78,1.52,1.52,0,0,1-.24-.79,1.28,1.28,0,0,1,.4-1A1.63,1.63,0,0,1,6.68,40h4v-.49a.44.44,0,0,1,.08-.29.26.26,0,0,1,.21-.09.27.27,0,0,1,.21.09.43.43,0,0,1,.08.29v1.06H6.73a1,1,0,0,0-.72.27.82.82,0,0,0-.29.62,1.19,1.19,0,0,0,.24.66,3.27,3.27,0,0,0,.93.79h3.81v-.48a.44.44,0,0,1,.08-.29.26.26,0,0,1,.21-.09.27.27,0,0,1,.21.09.43.43,0,0,1,.08.29v1.06H6.77a1.08,1.08,0,0,0-.76.27.8.8,0,0,0-.3.6,1.1,1.1,0,0,0,.2.61,3.49,3.49,0,0,0,1,.87h3.81v-.49a.44.44,0,0,1,.08-.29A.26.26,0,0,1,11,45a.27.27,0,0,1,.21.09.43.43,0,0,1,.08.29V47a.43.43,0,0,1-.08.29.27.27,0,0,1-.21.09.26.26,0,0,1-.21-.09.44.44,0,0,1-.08-.29v-.49H5.93V47a.43.43,0,0,1-.08.29.28.28,0,0,1-.21.09.27.27,0,0,1-.21-.09A.43.43,0,0,1,5.34,47Z"/><path class="cls-2" d="M8.44,31.77v5.85a2.78,2.78,0,0,0,1.79-.93,2.85,2.85,0,0,0,.68-1.94,4.67,4.67,0,0,0-.21-1.35,3.46,3.46,0,0,0-.56-1.15A.39.39,0,0,1,10,32a.26.26,0,0,1,.09-.19.28.28,0,0,1,.2-.08.32.32,0,0,1,.23.11A3.07,3.07,0,0,1,11.19,33a5.1,5.1,0,0,1,.3,1.72,3.38,3.38,0,0,1-1,2.46,3.16,3.16,0,0,1-2.34,1A2.88,2.88,0,0,1,6,37.28,3.17,3.17,0,0,1,5.14,35a3.12,3.12,0,0,1,.92-2.32A3.2,3.2,0,0,1,8.44,31.77Zm-.58.58a2.5,2.5,0,0,0-1.54.9,2.83,2.83,0,0,0,0,3.46,2.52,2.52,0,0,0,1.55.9Z"/><path class="cls-2" d="M5.34,28.34h.87a4.14,4.14,0,0,1-.84-1.09,2.5,2.5,0,0,1-.23-1.09A2.56,2.56,0,0,1,5.42,25a2,2,0,0,1,.68-.69,1.76,1.76,0,0,1,1-.31h3.62v-.49a.44.44,0,0,1,.08-.29.26.26,0,0,1,.21-.09.27.27,0,0,1,.21.09.43.43,0,0,1,.08.29V25a.44.44,0,0,1-.08.3.27.27,0,0,1-.21.09.26.26,0,0,1-.21-.09.45.45,0,0,1-.08-.3v-.48H7.17a1.36,1.36,0,0,0-1,.44,1.66,1.66,0,0,0-.42,1.19,2,2,0,0,0,.23,1,5.28,5.28,0,0,0,1.14,1.19h3.6v-.65a.44.44,0,0,1,.08-.29A.26.26,0,0,1,11,27.3a.27.27,0,0,1,.21.09.43.43,0,0,1,.08.29v1.87a.43.43,0,0,1-.08.29.27.27,0,0,1-.21.09.26.26,0,0,1-.21-.09.44.44,0,0,1-.08-.29v-.65H5.93v.49a.43.43,0,0,1-.08.29.28.28,0,0,1-.21.09.27.27,0,0,1-.21-.09.43.43,0,0,1-.08-.29Z"/><path class="cls-2" d="M5.34,19.26V16.14a.43.43,0,0,1,.08-.29.28.28,0,0,1,.21-.09.27.27,0,0,1,.21.09.43.43,0,0,1,.08.29v3.12H9.75a1,1,0,0,0,.83-.4,1.78,1.78,0,0,0,.33-1.17,5.06,5.06,0,0,0-.17-1.26,4.26,4.26,0,0,0-.39-1.05.45.45,0,0,1-.09-.23.26.26,0,0,1,.09-.19.28.28,0,0,1,.2-.08.27.27,0,0,1,.19.09A2.86,2.86,0,0,1,11.23,16a5.43,5.43,0,0,1,.26,1.62,2.5,2.5,0,0,1-.47,1.6,1.54,1.54,0,0,1-1.27.59H5.93V20.9a.43.43,0,0,1-.08.29.28.28,0,0,1-.21.09.27.27,0,0,1-.21-.09.43.43,0,0,1-.08-.29V19.84H3.65a.43.43,0,0,1-.29-.08.27.27,0,0,1-.09-.21.28.28,0,0,1,.09-.21.43.43,0,0,1,.29-.08Z"/><path class="cls-2" d="M40.29,33v8.12h2a.44.44,0,0,1,.29.08.26.26,0,0,1,.09.21.27.27,0,0,1-.09.21.43.43,0,0,1-.29.08H37.74a.43.43,0,0,1-.29-.08.27.27,0,0,1-.09-.21.26.26,0,0,1,.09-.21.44.44,0,0,1,.29-.08h2V33.77l-1.87.59-.2,0a.26.26,0,0,1-.19-.09.28.28,0,0,1-.09-.2.31.31,0,0,1,.07-.19.66.66,0,0,1,.23-.12Z"/><path class="cls-2" d="M37.78,81h4.41v-.23a.43.43,0,0,1,.08-.29.28.28,0,0,1,.21-.09.27.27,0,0,1,.21.09.43.43,0,0,1,.08.29v.8H37.22v-.85q1.75-1.57,3.4-3.2a15.36,15.36,0,0,0,1.06-1.11,2.51,2.51,0,0,0,.39-.63,1.48,1.48,0,0,0,.11-.54,1.76,1.76,0,0,0-.59-1.31,2,2,0,0,0-1.44-.57,2.18,2.18,0,0,0-1.33.43,1.93,1.93,0,0,0-.75,1.07.39.39,0,0,1-.1.21.29.29,0,0,1-.19.07.26.26,0,0,1-.19-.08.26.26,0,0,1-.08-.19,1.84,1.84,0,0,1,.36-.89,2.49,2.49,0,0,1,1-.88,2.83,2.83,0,0,1,1.3-.32,2.57,2.57,0,0,1,1.85.74,2.29,2.29,0,0,1,.77,1.69,2,2,0,0,1-.13.73,2.92,2.92,0,0,1-.44.72,14.8,14.8,0,0,1-1.12,1.19q-2,2-3.29,3.1Z"/><path class="cls-2" d="M80.48,36.94a2.79,2.79,0,0,1,1.21,1,2.27,2.27,0,0,1,.42,1.29A2.44,2.44,0,0,1,81.27,41a2.93,2.93,0,0,1-2.09.79,4.14,4.14,0,0,1-1.53-.31,3.2,3.2,0,0,1-1.11-.64.34.34,0,0,1-.1-.23.27.27,0,0,1,.08-.19.25.25,0,0,1,.19-.08.43.43,0,0,1,.25.1,3.7,3.7,0,0,0,2.24.79,2.36,2.36,0,0,0,1.67-.63,1.87,1.87,0,0,0,.67-1.39,1.78,1.78,0,0,0-.33-1,2.23,2.23,0,0,0-1-.78A3,3,0,0,0,79,37.16a.44.44,0,0,1-.29-.08.26.26,0,0,1-.09-.21.27.27,0,0,1,.09-.21.36.36,0,0,1,.26-.08h.49a1.79,1.79,0,0,0,1.27-.47,1.46,1.46,0,0,0,.5-1.09,1.51,1.51,0,0,0-.53-1.13,1.93,1.93,0,0,0-1.37-.49,2.85,2.85,0,0,0-1.09.21,2,2,0,0,0-.8.56.69.69,0,0,1-.17.17.28.28,0,0,1-.13,0,.28.28,0,0,1-.2-.08.25.25,0,0,1-.08-.19q0-.27.59-.69a3.19,3.19,0,0,1,1.88-.58,2.51,2.51,0,0,1,1.78.65A2.06,2.06,0,0,1,81.8,35a2,2,0,0,1-.33,1.09A2.33,2.33,0,0,1,80.48,36.94Z"/><path class="cls-2" d="M41.18,119.52H37.37v-.66l3.19-5.52h1.2v5.6h.48a.45.45,0,0,1,.3.08.26.26,0,0,1,.09.21.27.27,0,0,1-.09.21.44.44,0,0,1-.3.08h-.48v1.82h.48a.45.45,0,0,1,.3.08.26.26,0,0,1,.09.21.27.27,0,0,1-.09.21.44.44,0,0,1-.3.08H40.1a.44.44,0,0,1-.3-.08.27.27,0,0,1-.09-.21.26.26,0,0,1,.09-.21.45.45,0,0,1,.3-.08h1.07Zm0-.57v-5h-.3l-2.9,5Z"/><path class="cls-2" d="M77.71,73.37v2.81a5.93,5.93,0,0,1,1-.32,4,4,0,0,1,.88-.11,2.4,2.4,0,0,1,1.81.76,2.76,2.76,0,0,1,.73,2,3.05,3.05,0,0,1-.82,2.21,2.74,2.74,0,0,1-2.05.85,3.56,3.56,0,0,1-1.57-.36,4.33,4.33,0,0,1-1-.63q-.26-.23-.26-.38a.29.29,0,0,1,.08-.21.26.26,0,0,1,.19-.09A.37.37,0,0,1,77,80a3.24,3.24,0,0,0,2.25,1,2.2,2.2,0,0,0,1.66-.69,2.54,2.54,0,0,0,.66-1.83A2.16,2.16,0,0,0,81,76.92a1.91,1.91,0,0,0-1.44-.59,3.81,3.81,0,0,0-1.79.47.85.85,0,0,1-.31.11.26.26,0,0,1-.2-.08.33.33,0,0,1-.08-.23V72.79h4a.43.43,0,0,1,.29.08.28.28,0,0,1,.09.21.27.27,0,0,1-.09.21.43.43,0,0,1-.29.08Z"/><path class="cls-2" d="M116.5,38a4.21,4.21,0,0,1,1.1-1.16,2.21,2.21,0,0,1,1.25-.38,2.17,2.17,0,0,1,1.63.76,2.66,2.66,0,0,1,.71,1.88,3,3,0,0,1-.65,1.88,2.13,2.13,0,0,1-1.79.85,2.36,2.36,0,0,1-1.39-.46,3,3,0,0,1-1-1.41,7.19,7.19,0,0,1-.46-2.62,4.72,4.72,0,0,1,.43-2,4.26,4.26,0,0,1,.87-1.26,4.57,4.57,0,0,1,1.27-.89,3.63,3.63,0,0,1,1.58-.35,1.82,1.82,0,0,1,1,.23.31.31,0,0,1,.16.27.28.28,0,0,1-.08.2.25.25,0,0,1-.19.08.45.45,0,0,1-.21-.07,1.58,1.58,0,0,0-.7-.14,3.31,3.31,0,0,0-2.43,1.14,3.8,3.8,0,0,0-1.1,2.72Q116.46,37.5,116.5,38Zm.13.95a3.39,3.39,0,0,0,.82,1.78,1.84,1.84,0,0,0,1.32.53,1.71,1.71,0,0,0,1.31-.6,2.22,2.22,0,0,0,.54-1.55,2.09,2.09,0,0,0-.55-1.48,1.65,1.65,0,0,0-1.24-.59,1.88,1.88,0,0,0-1.28.57A5.18,5.18,0,0,0,116.63,38.93Z"/><path class="cls-2" d="M38,158.44a4.21,4.21,0,0,1,1.1-1.16,2.21,2.21,0,0,1,1.25-.38,2.17,2.17,0,0,1,1.63.76,2.66,2.66,0,0,1,.71,1.88,3,3,0,0,1-.65,1.88,2.13,2.13,0,0,1-1.79.85,2.36,2.36,0,0,1-1.39-.46,3,3,0,0,1-1-1.41,7.19,7.19,0,0,1-.46-2.62,4.72,4.72,0,0,1,.43-2,4.26,4.26,0,0,1,.87-1.26,4.57,4.57,0,0,1,1.27-.89,3.63,3.63,0,0,1,1.58-.35,1.82,1.82,0,0,1,1,.23.31.31,0,0,1,.16.27.28.28,0,0,1-.08.2.25.25,0,0,1-.19.08.45.45,0,0,1-.21-.07,1.58,1.58,0,0,0-.7-.14A3.31,3.31,0,0,0,39,155a3.8,3.8,0,0,0-1.1,2.72Q37.92,158,38,158.44Zm.13.95a3.39,3.39,0,0,0,.82,1.78,1.84,1.84,0,0,0,1.32.53,1.71,1.71,0,0,0,1.31-.6,2.22,2.22,0,0,0,.54-1.55,2.09,2.09,0,0,0-.55-1.48,1.65,1.65,0,0,0-1.24-.59A1.88,1.88,0,0,0,39,158,5.18,5.18,0,0,0,38.09,159.39Z"/><path class="cls-2" d="M81.32,114.17v-.26H77.21v.51a.44.44,0,0,1-.08.29.26.26,0,0,1-.21.09.27.27,0,0,1-.21-.09.43.43,0,0,1-.08-.29v-1.09H81.9v.92l-2.31,7.38a.47.47,0,0,1-.13.24.27.27,0,0,1-.17.06.28.28,0,0,1-.21-.08.26.26,0,0,1-.08-.19.66.66,0,0,1,0-.19Z"/><path class="cls-2" d="M119.72,77a2.59,2.59,0,0,1,1.08.92,2.23,2.23,0,0,1,.37,1.23,2.38,2.38,0,0,1-.77,1.76,2.69,2.69,0,0,1-3.72,0,2.38,2.38,0,0,1-.77-1.76,2.22,2.22,0,0,1,.37-1.22,2.62,2.62,0,0,1,1.09-.93,3,3,0,0,1-.92-.75,2.05,2.05,0,0,1-.4-1.22,2.23,2.23,0,0,1,.73-1.65,2.53,2.53,0,0,1,3.51,0A2.24,2.24,0,0,1,121,75a2,2,0,0,1-.4,1.22A2.81,2.81,0,0,1,119.72,77Zm.87,2.16a1.76,1.76,0,0,0-.59-1.32,2.19,2.19,0,0,0-2.93,0,1.76,1.76,0,0,0-.59,1.31,1.83,1.83,0,0,0,.59,1.35,2.14,2.14,0,0,0,2.92,0A1.82,1.82,0,0,0,120.59,79.18Zm-.16-4.11a1.7,1.7,0,0,0-.55-1.27,2,2,0,0,0-2.69,0,1.69,1.69,0,0,0-.55,1.26,1.55,1.55,0,0,0,.54,1.17,2.07,2.07,0,0,0,2.71,0A1.54,1.54,0,0,0,120.43,75.06Z"/><path class="cls-2" d="M159.85,36.76a3.31,3.31,0,0,1-1.06,1.18,2.28,2.28,0,0,1-1.25.4,2.17,2.17,0,0,1-1.15-.34,2.38,2.38,0,0,1-.89-1,3.07,3.07,0,0,1-.33-1.38,3.11,3.11,0,0,1,.65-1.92,2.08,2.08,0,0,1,1.75-.86,2.3,2.3,0,0,1,1.42.49,3.11,3.11,0,0,1,1,1.41,7.58,7.58,0,0,1,.46,2.75,4.64,4.64,0,0,1-.39,2,4,4,0,0,1-.76,1.06,4.34,4.34,0,0,1-1.13.83,4,4,0,0,1-1.79.43,1.94,1.94,0,0,1-1-.23.32.32,0,0,1-.18-.27.26.26,0,0,1,.08-.19.28.28,0,0,1,.2-.08.62.62,0,0,1,.24.08,1.39,1.39,0,0,0,.62.13,3.41,3.41,0,0,0,2.5-1,3.57,3.57,0,0,0,1-2.63Q159.88,37.28,159.85,36.76Zm-.11-1a4,4,0,0,0-.9-1.89,1.78,1.78,0,0,0-1.25-.5,1.68,1.68,0,0,0-1.28.62,2.27,2.27,0,0,0-.55,1.58,2.22,2.22,0,0,0,.55,1.55,1.66,1.66,0,0,0,1.25.61,1.62,1.62,0,0,0,.8-.22,2.55,2.55,0,0,0,.74-.66A9,9,0,0,0,159.74,35.8Z"/><path class="cls-2" d="M75.36,153.43v8.12h2a.44.44,0,0,1,.29.08.26.26,0,0,1,.09.21.27.27,0,0,1-.09.21.43.43,0,0,1-.29.08H72.81a.43.43,0,0,1-.29-.08.27.27,0,0,1-.09-.21.26.26,0,0,1,.09-.21.44.44,0,0,1,.29-.08h2v-7.33l-1.87.59-.2,0a.26.26,0,0,1-.19-.09.28.28,0,0,1-.09-.2.31.31,0,0,1,.07-.19.66.66,0,0,1,.23-.12Z"/><path class="cls-2" d="M83.75,153.43v8.12h2a.44.44,0,0,1,.29.08.26.26,0,0,1,.09.21A.27.27,0,0,1,86,162a.43.43,0,0,1-.29.08H81.21a.43.43,0,0,1-.29-.08.27.27,0,0,1-.09-.21.26.26,0,0,1,.09-.21.44.44,0,0,1,.29-.08h2v-7.33l-1.87.59-.2,0a.26.26,0,0,1-.19-.09.28.28,0,0,1-.09-.2.31.31,0,0,1,.07-.19.66.66,0,0,1,.23-.12Z"/><path class="cls-2" d="M114.69,113.32v8.12h2a.44.44,0,0,1,.29.08.26.26,0,0,1,.09.21.27.27,0,0,1-.09.21.43.43,0,0,1-.29.08h-4.51a.43.43,0,0,1-.29-.08.27.27,0,0,1-.09-.21.26.26,0,0,1,.09-.21.44.44,0,0,1,.29-.08h2v-7.33l-1.87.59-.2,0a.26.26,0,0,1-.19-.09.28.28,0,0,1-.09-.2.31.31,0,0,1,.07-.19.66.66,0,0,1,.23-.12Z"/><path class="cls-2" d="M120.33,121.44h4.41v-.23a.43.43,0,0,1,.08-.29.28.28,0,0,1,.21-.09.27.27,0,0,1,.21.09.43.43,0,0,1,.08.29v.8h-5.55v-.85q1.75-1.57,3.4-3.2a15.36,15.36,0,0,0,1.06-1.11,2.51,2.51,0,0,0,.39-.63,1.48,1.48,0,0,0,.11-.54,1.76,1.76,0,0,0-.59-1.31,2,2,0,0,0-1.44-.57,2.18,2.18,0,0,0-1.33.43,1.93,1.93,0,0,0-.75,1.07.39.39,0,0,1-.1.21.29.29,0,0,1-.19.07.26.26,0,0,1-.19-.08.26.26,0,0,1-.08-.19,1.84,1.84,0,0,1,.36-.89,2.49,2.49,0,0,1,1-.88,2.83,2.83,0,0,1,1.3-.32,2.57,2.57,0,0,1,1.85.74,2.29,2.29,0,0,1,.77,1.69,2,2,0,0,1-.13.73,2.92,2.92,0,0,1-.44.72,14.8,14.8,0,0,1-1.12,1.19q-2,2-3.29,3.1Z"/><path class="cls-2" d="M153.82,72.77v8.12h2a.44.44,0,0,1,.29.08.26.26,0,0,1,.09.21.27.27,0,0,1-.09.21.43.43,0,0,1-.29.08h-4.51a.43.43,0,0,1-.29-.08.27.27,0,0,1-.09-.21A.26.26,0,0,1,151,81a.44.44,0,0,1,.29-.08h2V73.57l-1.87.59-.2,0a.26.26,0,0,1-.19-.09.28.28,0,0,1-.09-.2.31.31,0,0,1,.07-.19.66.66,0,0,1,.23-.12Z"/><path class="cls-2" d="M163.11,76.8a2.79,2.79,0,0,1,1.21,1,2.27,2.27,0,0,1,.42,1.29,2.44,2.44,0,0,1-.84,1.82,2.93,2.93,0,0,1-2.09.79,4.14,4.14,0,0,1-1.53-.31,3.2,3.2,0,0,1-1.11-.64.34.34,0,0,1-.1-.23.27.27,0,0,1,.08-.19.25.25,0,0,1,.19-.08.43.43,0,0,1,.25.1,3.7,3.7,0,0,0,2.24.79,2.36,2.36,0,0,0,1.67-.63,1.87,1.87,0,0,0,.67-1.39,1.78,1.78,0,0,0-.33-1,2.23,2.23,0,0,0-1-.78,3,3,0,0,0-1.26-.28.44.44,0,0,1-.29-.08.26.26,0,0,1-.09-.21.27.27,0,0,1,.09-.21.36.36,0,0,1,.26-.08h.49a1.79,1.79,0,0,0,1.27-.47,1.46,1.46,0,0,0,.5-1.09,1.51,1.51,0,0,0-.53-1.13,1.93,1.93,0,0,0-1.37-.49,2.85,2.85,0,0,0-1.09.21,2,2,0,0,0-.8.56.69.69,0,0,1-.17.17.28.28,0,0,1-.13,0,.28.28,0,0,1-.2-.08.25.25,0,0,1-.08-.19q0-.27.59-.69a3.19,3.19,0,0,1,1.88-.58,2.51,2.51,0,0,1,1.78.65,2.06,2.06,0,0,1,.7,1.55,2,2,0,0,1-.33,1.09A2.33,2.33,0,0,1,163.11,76.8Z"/><path class="cls-2" d="M114.69,153.43v8.12h2a.44.44,0,0,1,.29.08.26.26,0,0,1,.09.21.27.27,0,0,1-.09.21.43.43,0,0,1-.29.08h-4.51a.43.43,0,0,1-.29-.08.27.27,0,0,1-.09-.21.26.26,0,0,1,.09-.21.44.44,0,0,1,.29-.08h2v-7.33l-1.87.59-.2,0a.26.26,0,0,1-.19-.09.28.28,0,0,1-.09-.2.31.31,0,0,1,.07-.19.66.66,0,0,1,.23-.12Z"/><path class="cls-2" d="M124.74,154.38v-.26h-4.11v.51a.44.44,0,0,1-.08.29.26.26,0,0,1-.21.09.27.27,0,0,1-.21-.09.43.43,0,0,1-.08-.29v-1.09h5.27v.92L123,161.84a.47.47,0,0,1-.13.24.27.27,0,0,1-.17.06.28.28,0,0,1-.21-.08.26.26,0,0,1-.08-.19.66.66,0,0,1,0-.19Z"/><path class="cls-2" d="M153.9,113.22v8.12h2a.44.44,0,0,1,.29.08.26.26,0,0,1,.09.21.27.27,0,0,1-.09.21.43.43,0,0,1-.29.08h-4.51a.43.43,0,0,1-.29-.08.27.27,0,0,1-.09-.21.26.26,0,0,1,.09-.21.44.44,0,0,1,.29-.08h2V114l-1.87.59-.2,0a.26.26,0,0,1-.19-.09.28.28,0,0,1-.09-.2.31.31,0,0,1,.07-.19.66.66,0,0,1,.23-.12Z"/><path class="cls-2" d="M163.2,117.47a2.59,2.59,0,0,1,1.08.92,2.23,2.23,0,0,1,.37,1.23,2.38,2.38,0,0,1-.77,1.76,2.69,2.69,0,0,1-3.72,0,2.38,2.38,0,0,1-.77-1.76,2.22,2.22,0,0,1,.37-1.22,2.62,2.62,0,0,1,1.09-.93,3,3,0,0,1-.92-.75,2.05,2.05,0,0,1-.4-1.22,2.23,2.23,0,0,1,.73-1.65,2.53,2.53,0,0,1,3.51,0,2.24,2.24,0,0,1,.72,1.65,2,2,0,0,1-.4,1.22A2.81,2.81,0,0,1,163.2,117.47Zm.87,2.16a1.76,1.76,0,0,0-.59-1.32,2.19,2.19,0,0,0-2.93,0,1.76,1.76,0,0,0-.59,1.31,1.83,1.83,0,0,0,.59,1.35,2.14,2.14,0,0,0,2.92,0A1.82,1.82,0,0,0,164.07,119.63Zm-.16-4.11a1.7,1.7,0,0,0-.55-1.27,2,2,0,0,0-2.69,0,1.69,1.69,0,0,0-.55,1.26,1.55,1.55,0,0,0,.54,1.17,2.07,2.07,0,0,0,2.71,0A1.54,1.54,0,0,0,163.92,115.51Z"/><circle class="cls-2" cx="150.41" cy="151.26" r="3.5" transform="translate(-62.9 150.66) rotate(-45)"/><circle class="cls-2" cx="164.44" cy="165.29" r="3.5" transform="translate(-68.71 164.69) rotate(-45)"/><circle class="cls-2" cx="157.43" cy="158.27" r="3.5" transform="translate(-65.81 157.68) rotate(-45)"/></svg>