<svg id="Layer_1" data-name="Layer 1" xmlns="http://www.w3.org/2000/svg" viewBox="0 0 425.2 141.73"><defs><style>.cls-1{font-size:13px;}.cls-1,.cls-2,.cls-3,.cls-4,.cls-5,.cls-6{fill:#fff;}.cls-1,.cls-2,.cls-3,.cls-4,.cls-5{font-family:CourierNewPS-BoldMT, Courier New;font-weight:700;}.cls-2{font-size:11px;}.cls-3{font-size:9px;}.cls-4{font-size:7px;}.cls-5{font-size:5px;}.cls-7{fill:none;stroke:#fff;stroke-miterlimit:10;}.cls-8{font-size:12px;font-family:MyriadPro-Regular, Myriad Pro;}.cls-8,.cls-9{fill:#0f3;}</style></defs><title>infinity_trees_with_coordinates</title><text class="cls-1" transform="translate(229.93 34.46)">0</text><text class="cls-2" transform="translate(154.26 55.72)">0.0</text><text class="cls-2" transform="translate(296 55.72)">0.1</text><text class="cls-3" transform="translate(95.17 76.98)">0.00</text><text class="cls-3" transform="translate(180.21 76.98)">0.01</text><text class="cls-3" transform="matrix(1, 0, 0, 1, 265.19, 76.88)">0.10</text><text class="cls-3" transform="translate(350.29 76.98)">0.11</text><text class="cls-4" transform="translate(54.97 98.24)">0.000</text><text class="cls-4" transform="translate(102.22 98.24)">0.001</text><text class="cls-4" transform="translate(149.46 98.24)">0.010</text><text class="cls-4" transform="translate(291.2 98.24)">0.100</text><text class="cls-4" transform="translate(243.95 98.24)">0.101</text><text class="cls-4" transform="translate(338.42 98.24)">0.110</text><text class="cls-4" transform="translate(385.68 98.24)">0.111</text><text class="cls-4" transform="translate(196.71 98.24)">0.011</text><text class="cls-5" transform="translate(32.14 119.45)">0.0000</text><text class="cls-5" transform="translate(57.15 119.45)">0.0001</text><text class="cls-5" transform="translate(82.17 119.45)">0.0010</text><text class="cls-5" transform="translate(107.18 119.45)">0.0011</text><text class="cls-5" transform="translate(132.19 119.45)">0.0100</text><text class="cls-5" transform="translate(157.2 119.45)">0.0101</text><text class="cls-5" transform="translate(182.21 119.45)">0.0110</text><text class="cls-5" transform="translate(209.32 119.45)">0.111</text><text class="cls-5" transform="translate(257.25 119.45)">0.1011</text><text class="cls-5" transform="translate(232.24 119.45)">0.1010</text><text class="cls-5" transform="translate(282.26 119.45)">0.1000</text><text class="cls-5" transform="translate(307.27 119.45)">0.1001</text><text class="cls-5" transform="translate(332.28 119.45)">0.1100</text><text class="cls-5" transform="translate(357.29 119.45)">0.1101</text><text class="cls-5" transform="translate(382.31 119.45)">0.1110</text><text class="cls-5" transform="translate(407.32 119.45)">0.1111</text><circle class="cls-6" cx="41.14" cy="129.67" r="1.5"/><circle class="cls-6" cx="41.14" cy="134.67" r="1.5"/><circle class="cls-6" cx="41.14" cy="139.67" r="1.5"/><circle class="cls-6" cx="66.16" cy="129.67" r="1.5"/><circle class="cls-6" cx="66.16" cy="134.67" r="1.5"/><circle class="cls-6" cx="66.16" cy="139.67" r="1.5"/><circle class="cls-6" cx="91.17" cy="129.67" r="1.5"/><circle class="cls-6" cx="91.17" cy="134.67" r="1.5"/><circle class="cls-6" cx="91.17" cy="139.67" r="1.5"/><circle class="cls-6" cx="116.18" cy="129.67" r="1.5"/><circle class="cls-6" cx="116.18" cy="134.67" r="1.5"/><circle class="cls-6" cx="116.18" cy="139.67" r="1.5"/><circle class="cls-6" cx="141.19" cy="129.67" r="1.5"/><circle class="cls-6" cx="141.19" cy="134.67" r="1.5"/><circle class="cls-6" cx="141.19" cy="139.67" r="1.5"/><circle class="cls-6" cx="166.2" cy="129.67" r="1.5"/><circle class="cls-6" cx="166.2" cy="134.67" r="1.5"/><circle class="cls-6" cx="166.2" cy="139.67" r="1.5"/><circle class="cls-6" cx="191.21" cy="129.67" r="1.5"/><circle class="cls-6" cx="191.21" cy="134.67" r="1.5"/><circle class="cls-6" cx="191.21" cy="139.67" r="1.5"/><circle class="cls-6" cx="216.83" cy="129.67" r="1.5"/><circle class="cls-6" cx="216.83" cy="134.67" r="1.5"/><circle class="cls-6" cx="216.83" cy="139.67" r="1.5"/><circle class="cls-6" cx="241.24" cy="129.67" r="1.5"/><circle class="cls-6" cx="241.24" cy="134.67" r="1.5"/><circle class="cls-6" cx="241.24" cy="139.67" r="1.5"/><circle class="cls-6" cx="266.25" cy="129.67" r="1.5"/><circle class="cls-6" cx="266.25" cy="134.67" r="1.5"/><circle class="cls-6" cx="266.25" cy="139.67" r="1.5"/><circle class="cls-6" cx="291.26" cy="129.67" r="1.5"/><circle class="cls-6" cx="291.26" cy="134.67" r="1.5"/><circle class="cls-6" cx="291.26" cy="139.67" r="1.5"/><circle class="cls-6" cx="316.27" cy="129.67" r="1.5"/><circle class="cls-6" cx="316.27" cy="134.67" r="1.5"/><circle class="cls-6" cx="316.27" cy="139.67" r="1.5"/><circle class="cls-6" cx="341.28" cy="129.67" r="1.5"/><circle class="cls-6" cx="341.28" cy="134.67" r="1.5"/><circle class="cls-6" cx="341.28" cy="139.67" r="1.5"/><circle class="cls-6" cx="366.29" cy="129.67" r="1.5"/><circle class="cls-6" cx="366.29" cy="134.67" r="1.5"/><circle class="cls-6" cx="366.29" cy="139.67" r="1.5"/><circle class="cls-6" cx="391.31" cy="129.67" r="1.5"/><circle class="cls-6" cx="391.31" cy="134.67" r="1.5"/><circle class="cls-6" cx="391.31" cy="139.67" r="1.5"/><circle class="cls-6" cx="416.32" cy="129.67" r="1.5"/><circle class="cls-6" cx="416.32" cy="134.67" r="1.5"/><circle class="cls-6" cx="416.32" cy="139.67" r="1.5"/><line class="cls-7" x1="233.83" y1="36.87" x2="164.17" y2="46.79"/><line class="cls-7" x1="233.83" y1="36.87" x2="305.9" y2="46.79"/><line class="cls-7" x1="164.17" y1="58.13" x2="105.97" y2="68.05"/><line class="cls-7" x1="164.17" y1="58.13" x2="191.01" y2="68.05"/><line class="cls-7" x1="305.9" y1="58.13" x2="276.05" y2="68.05"/><line class="cls-7" x1="305.9" y1="58.13" x2="357.23" y2="68.05"/><line class="cls-7" x1="105.97" y1="79.39" x2="65.48" y2="92.15"/><line class="cls-7" x1="105.97" y1="79.39" x2="114.23" y2="92.15"/><line class="cls-7" x1="191.01" y1="79.39" x2="159.97" y2="92.15"/><line class="cls-7" x1="191.01" y1="79.39" x2="207.21" y2="92.15"/><line class="cls-7" x1="276.05" y1="79.39" x2="254.45" y2="92.15"/><line class="cls-7" x1="276.05" y1="79.39" x2="301.7" y2="92.15"/><line class="cls-7" x1="361.09" y1="79.39" x2="348.92" y2="92.15"/><line class="cls-7" x1="361.09" y1="79.39" x2="396.19" y2="92.15"/><line class="cls-7" x1="65.48" y1="100.65" x2="41.14" y2="114.82"/><line class="cls-7" x1="65.48" y1="100.65" x2="66.16" y2="114.82"/><line class="cls-7" x1="114.24" y1="100.65" x2="91.17" y2="114.82"/><line class="cls-7" x1="114.23" y1="100.65" x2="116.18" y2="114.82"/><line class="cls-7" x1="159.97" y1="100.65" x2="141.19" y2="114.82"/><line class="cls-7" x1="159.97" y1="100.65" x2="166.2" y2="114.28"/><line class="cls-7" x1="207.21" y1="100.65" x2="191.21" y2="114.82"/><line class="cls-7" x1="207.21" y1="100.65" x2="216.83" y2="114.82"/><line class="cls-7" x1="254.45" y1="100.65" x2="241.24" y2="114.82"/><line class="cls-7" x1="254.45" y1="100.65" x2="266.25" y2="114.82"/><line class="cls-7" x1="301.7" y1="100.65" x2="291.26" y2="114.82"/><line class="cls-7" x1="301.7" y1="100.65" x2="316.27" y2="114.82"/><line class="cls-7" x1="348.92" y1="100.65" x2="341.28" y2="114.82"/><line class="cls-7" x1="348.92" y1="100.65" x2="366.29" y2="114.82"/><line class="cls-7" x1="396.19" y1="100.65" x2="391.31" y2="114.82"/><line class="cls-7" x1="396.19" y1="100.65" x2="416.32" y2="114.82"/><text class="cls-8" transform="translate(8.22 15.59)">a:</text><text class="cls-8" transform="translate(16.49 34.19)">0</text><text class="cls-8" transform="translate(16.49 55.25)">1</text><text class="cls-8" transform="translate(16.49 77.3)">2</text><circle class="cls-9" cx="19.56" cy="89.37" r="1.5"/><circle class="cls-9" cx="19.56" cy="94.37" r="1.5"/><circle class="cls-9" cx="19.56" cy="99.37" r="1.5"/><text class="cls-8" transform="translate(193.37 34)">b = 0</text><text class="cls-8" transform="translate(259.44 56)">b = 1</text><text class="cls-8" transform="translate(117.7 56)">b = 0</text><text class="cls-8" transform="translate(313.73 77)">b = 3</text><text class="cls-8" transform="translate(228.69 77)">b = 2</text><text class="cls-8" transform="translate(143.65 77)">b = 1</text><text class="cls-8" transform="translate(58.61 77)">b = 0</text></svg>