<svg id="Layer_1" data-name="Layer 1" xmlns="http://www.w3.org/2000/svg" viewBox="0 0 425.2 141.73"><defs><style>.cls-1{font-size:14.06px;}.cls-1,.cls-2,.cls-3,.cls-4,.cls-5,.cls-6,.cls-7{fill:#fff;}.cls-1,.cls-2,.cls-3,.cls-4,.cls-5,.cls-6{font-family:CourierNewPS-BoldMT, Courier New;font-weight:700;}.cls-2{font-size:11.9px;}.cls-3{font-size:9.73px;}.cls-4{font-size:9.73px;}.cls-5{font-size:7.57px;}.cls-6{font-size:5.41px;}.cls-8{fill:none;stroke:#fff;stroke-miterlimit:10;}</style></defs><title>infinity_trees</title><text class="cls-1" transform="translate(213.9 18.84)">0</text><text class="cls-2" transform="translate(132.07 41.83)">0.0</text><text class="cls-2" transform="translate(285.34 41.83)">0.1</text><text class="cls-3" transform="translate(68.16 64.82)">0.00</text><text class="cls-3" transform="translate(160.13 64.82)">0.01</text><text class="cls-4" transform="matrix(1, 0, 0, 1, 252.1, 64.82)">0.10</text><text class="cls-3" transform="translate(344.06 64.82)">0.11</text><text class="cls-5" transform="translate(24.69 87.81)">0.000</text><text class="cls-5" transform="translate(75.78 87.81)">0.001</text><text class="cls-5" transform="translate(126.87 87.81)">0.010</text><text class="cls-5" transform="translate(280.15 87.81)">0.100</text><text class="cls-5" transform="translate(229.06 87.81)">0.101</text><text class="cls-5" transform="translate(331.22 87.81)">0.110</text><text class="cls-5" transform="translate(382.33 87.81)">0.111</text><text class="cls-5" transform="translate(177.96 87.81)">0.011</text><text class="cls-6" transform="translate(0 110.75)">0.0000</text><text class="cls-6" transform="translate(27.05 110.75)">0.0001</text><text class="cls-6" transform="translate(54.1 110.75)">0.0010</text><text class="cls-6" transform="translate(81.15 110.75)">0.0011</text><text class="cls-6" transform="translate(108.19 110.75)">0.0100</text><text class="cls-6" transform="translate(135.24 110.75)">0.0101</text><text class="cls-6" transform="translate(162.29 110.75)">0.0110</text><text class="cls-6" transform="translate(191.61 110.75)">0.111</text><text class="cls-6" transform="translate(243.44 110.75)">0.1011</text><text class="cls-6" transform="translate(216.39 110.75)">0.1010</text><text class="cls-6" transform="translate(270.48 110.75)">0.1000</text><text class="cls-6" transform="translate(297.53 110.75)">0.1001</text><text class="cls-6" transform="translate(324.58 110.75)">0.1100</text><text class="cls-6" transform="translate(351.63 110.75)">0.1101</text><text class="cls-6" transform="translate(378.68 110.75)">0.1110</text><text class="cls-6" transform="translate(405.73 110.75)">0.1111</text><circle class="cls-7" cx="9.73" cy="121.8" r="1.62"/><circle class="cls-7" cx="9.73" cy="127.21" r="1.62"/><circle class="cls-7" cx="9.73" cy="132.61" r="1.62"/><circle class="cls-7" cx="36.78" cy="121.8" r="1.62"/><circle class="cls-7" cx="36.78" cy="127.21" r="1.62"/><circle class="cls-7" cx="36.78" cy="132.61" r="1.62"/><circle class="cls-7" cx="63.83" cy="121.8" r="1.62"/><circle class="cls-7" cx="63.83" cy="127.21" r="1.62"/><circle class="cls-7" cx="63.83" cy="132.61" r="1.62"/><circle class="cls-7" cx="90.88" cy="121.8" r="1.62"/><circle class="cls-7" cx="90.88" cy="127.21" r="1.62"/><circle class="cls-7" cx="90.88" cy="132.61" r="1.62"/><circle class="cls-7" cx="117.93" cy="121.8" r="1.62"/><circle class="cls-7" cx="117.93" cy="127.21" r="1.62"/><circle class="cls-7" cx="117.93" cy="132.61" r="1.62"/><circle class="cls-7" cx="144.98" cy="121.8" r="1.62"/><circle class="cls-7" cx="144.98" cy="127.21" r="1.62"/><circle class="cls-7" cx="144.98" cy="132.61" r="1.62"/><circle class="cls-7" cx="172.02" cy="121.8" r="1.62"/><circle class="cls-7" cx="172.02" cy="127.21" r="1.62"/><circle class="cls-7" cx="172.02" cy="132.61" r="1.62"/><circle class="cls-7" cx="199.72" cy="121.8" r="1.62"/><circle class="cls-7" cx="199.72" cy="127.21" r="1.62"/><circle class="cls-7" cx="199.72" cy="132.61" r="1.62"/><circle class="cls-7" cx="226.12" cy="121.8" r="1.62"/><circle class="cls-7" cx="226.12" cy="127.21" r="1.62"/><circle class="cls-7" cx="226.12" cy="132.61" r="1.62"/><circle class="cls-7" cx="253.17" cy="121.8" r="1.62"/><circle class="cls-7" cx="253.17" cy="127.21" r="1.62"/><circle class="cls-7" cx="253.17" cy="132.61" r="1.62"/><circle class="cls-7" cx="280.22" cy="121.8" r="1.62"/><circle class="cls-7" cx="280.22" cy="127.21" r="1.62"/><circle class="cls-7" cx="280.22" cy="132.61" r="1.62"/><circle class="cls-7" cx="307.27" cy="121.8" r="1.62"/><circle class="cls-7" cx="307.27" cy="127.21" r="1.62"/><circle class="cls-7" cx="307.27" cy="132.61" r="1.62"/><circle class="cls-7" cx="334.32" cy="121.8" r="1.62"/><circle class="cls-7" cx="334.32" cy="127.21" r="1.62"/><circle class="cls-7" cx="334.32" cy="132.61" r="1.62"/><circle class="cls-7" cx="361.36" cy="121.8" r="1.62"/><circle class="cls-7" cx="361.36" cy="127.21" r="1.62"/><circle class="cls-7" cx="361.36" cy="132.61" r="1.62"/><circle class="cls-7" cx="388.41" cy="121.8" r="1.62"/><circle class="cls-7" cx="388.41" cy="127.21" r="1.62"/><circle class="cls-7" cx="388.41" cy="132.61" r="1.62"/><circle class="cls-7" cx="415.46" cy="121.8" r="1.62"/><circle class="cls-7" cx="415.46" cy="127.21" r="1.62"/><circle class="cls-7" cx="415.46" cy="132.61" r="1.62"/><line class="cls-8" x1="218.11" y1="21.45" x2="142.78" y2="32.18"/><line class="cls-8" x1="218.11" y1="21.45" x2="296.05" y2="32.18"/><line class="cls-8" x1="142.78" y1="44.44" x2="79.84" y2="55.17"/><line class="cls-8" x1="142.78" y1="44.44" x2="171.81" y2="55.17"/><line class="cls-8" x1="296.05" y1="44.44" x2="263.77" y2="55.17"/><line class="cls-8" x1="296.05" y1="44.44" x2="351.57" y2="55.17"/><line class="cls-8" x1="79.84" y1="67.43" x2="36.05" y2="81.23"/><line class="cls-8" x1="79.84" y1="67.43" x2="88.78" y2="81.23"/><line class="cls-8" x1="171.81" y1="67.43" x2="138.23" y2="81.23"/><line class="cls-8" x1="171.81" y1="67.43" x2="189.32" y2="81.23"/><line class="cls-8" x1="263.77" y1="67.43" x2="240.42" y2="81.23"/><line class="cls-8" x1="263.77" y1="67.43" x2="291.51" y2="81.23"/><line class="cls-8" x1="355.74" y1="67.43" x2="342.58" y2="81.23"/><line class="cls-8" x1="355.74" y1="67.43" x2="393.69" y2="81.23"/><line class="cls-8" x1="36.05" y1="90.42" x2="9.73" y2="105.75"/><line class="cls-8" x1="36.05" y1="90.42" x2="36.78" y2="105.75"/><line class="cls-8" x1="88.78" y1="90.42" x2="63.83" y2="105.75"/><line class="cls-8" x1="88.78" y1="90.42" x2="90.88" y2="105.75"/><line class="cls-8" x1="138.23" y1="90.42" x2="117.93" y2="105.75"/><line class="cls-8" x1="138.23" y1="90.42" x2="144.98" y2="105.16"/><line class="cls-8" x1="189.32" y1="90.42" x2="172.02" y2="105.75"/><line class="cls-8" x1="189.32" y1="90.42" x2="199.72" y2="105.75"/><line class="cls-8" x1="240.42" y1="90.42" x2="226.12" y2="105.75"/><line class="cls-8" x1="240.42" y1="90.42" x2="253.17" y2="105.75"/><line class="cls-8" x1="291.51" y1="90.42" x2="280.22" y2="105.75"/><line class="cls-8" x1="291.51" y1="90.42" x2="307.27" y2="105.75"/><line class="cls-8" x1="342.58" y1="90.42" x2="334.32" y2="105.75"/><line class="cls-8" x1="342.58" y1="90.42" x2="361.36" y2="105.75"/><line class="cls-8" x1="393.69" y1="90.42" x2="388.41" y2="105.75"/><line class="cls-8" x1="393.69" y1="90.42" x2="415.46" y2="105.75"/></svg>