<svg id="Layer_1" data-name="Layer 1" xmlns="http://www.w3.org/2000/svg" viewBox="0 0 425.2 141.73"><defs><style>.cls-1{font-size:13px;}.cls-1,.cls-2,.cls-3,.cls-4,.cls-5,.cls-6{fill:#fff;stroke:#fff;}.cls-1,.cls-2,.cls-3,.cls-4,.cls-5{font-family:CourierNewPSMT, Courier New;}.cls-2{font-size:11px;}.cls-3{font-size:9px;}.cls-4{font-size:7px;}.cls-5{font-size:5px;}.cls-6{stroke-miterlimit:10;}</style></defs><title>infinity_trees</title><text class="cls-1" transform="translate(210.2 21.68)">0</text><text class="cls-2" transform="translate(134.53 42.94)">0.0</text><text class="cls-2" transform="translate(276.26 42.94)">0.1</text><text class="cls-3" transform="translate(75.44 64.2)">0.00</text><text class="cls-3" transform="translate(160.48 64.2)">0.01</text><text class="cls-3" transform="translate(245.52 64.2)">0.10</text><text class="cls-3" transform="translate(330.56 64.2)">0.11</text><text class="cls-4" transform="translate(35.24 85.46)">0.000</text><text class="cls-4" transform="translate(82.49 85.46)">0.001</text><text class="cls-4" transform="translate(129.73 85.46)">0.010</text><text class="cls-4" transform="translate(271.46 85.46)">0.100</text><text class="cls-4" transform="translate(224.22 85.46)">0.101</text><text class="cls-4" transform="translate(318.69 85.46)">0.110</text><text class="cls-4" transform="translate(365.95 85.46)">0.111</text><text class="cls-4" transform="translate(176.97 85.46)">0.011</text><text class="cls-5" transform="translate(12.41 106.67)">0.0000</text><text class="cls-5" transform="translate(37.42 106.67)">0.0001</text><text class="cls-5" transform="translate(62.43 106.67)">0.0010</text><text class="cls-5" transform="translate(87.44 106.67)">0.0011</text><text class="cls-5" transform="translate(112.46 106.67)">0.0100</text><text class="cls-5" transform="translate(137.47 106.67)">0.0101</text><text class="cls-5" transform="translate(162.48 106.67)">0.0110</text><text class="cls-5" transform="translate(189.59 106.67)">0.111</text><text class="cls-5" transform="translate(237.51 106.67)">0.1011</text><text class="cls-5" transform="translate(212.5 106.67)">0.1010</text><text class="cls-5" transform="translate(262.53 106.67)">0.1000</text><text class="cls-5" transform="translate(287.54 106.67)">0.1001</text><text class="cls-5" transform="translate(312.55 106.67)">0.1100</text><text class="cls-5" transform="translate(337.56 106.67)">0.1101</text><text class="cls-5" transform="translate(362.57 106.67)">0.1110</text><text class="cls-5" transform="translate(387.58 106.67)">0.1111</text><circle class="cls-6" cx="21.41" cy="116.89" r="1.5"/><circle class="cls-6" cx="21.41" cy="121.89" r="1.5"/><circle class="cls-6" cx="21.41" cy="126.89" r="1.5"/><circle class="cls-6" cx="46.42" cy="116.89" r="1.5"/><circle class="cls-6" cx="46.42" cy="121.89" r="1.5"/><circle class="cls-6" cx="46.42" cy="126.89" r="1.5"/><circle class="cls-6" cx="71.43" cy="116.89" r="1.5"/><circle class="cls-6" cx="71.43" cy="121.89" r="1.5"/><circle class="cls-6" cx="71.43" cy="126.89" r="1.5"/><circle class="cls-6" cx="96.45" cy="116.89" r="1.5"/><circle class="cls-6" cx="96.45" cy="121.89" r="1.5"/><circle class="cls-6" cx="96.45" cy="126.89" r="1.5"/><circle class="cls-6" cx="121.46" cy="116.89" r="1.5"/><circle class="cls-6" cx="121.46" cy="121.89" r="1.5"/><circle class="cls-6" cx="121.46" cy="126.89" r="1.5"/><circle class="cls-6" cx="146.47" cy="116.89" r="1.5"/><circle class="cls-6" cx="146.47" cy="121.89" r="1.5"/><circle class="cls-6" cx="146.47" cy="126.89" r="1.5"/><circle class="cls-6" cx="171.48" cy="116.89" r="1.5"/><circle class="cls-6" cx="171.48" cy="121.89" r="1.5"/><circle class="cls-6" cx="171.48" cy="126.89" r="1.5"/><circle class="cls-6" cx="197.09" cy="116.89" r="1.5"/><circle class="cls-6" cx="197.09" cy="121.89" r="1.5"/><circle class="cls-6" cx="197.09" cy="126.89" r="1.5"/><circle class="cls-6" cx="221.5" cy="116.89" r="1.5"/><circle class="cls-6" cx="221.5" cy="121.89" r="1.5"/><circle class="cls-6" cx="221.5" cy="126.89" r="1.5"/><circle class="cls-6" cx="246.51" cy="116.89" r="1.5"/><circle class="cls-6" cx="246.51" cy="121.89" r="1.5"/><circle class="cls-6" cx="246.51" cy="126.89" r="1.5"/><circle class="cls-6" cx="271.53" cy="116.89" r="1.5"/><circle class="cls-6" cx="271.53" cy="121.89" r="1.5"/><circle class="cls-6" cx="271.53" cy="126.89" r="1.5"/><circle class="cls-6" cx="296.54" cy="116.89" r="1.5"/><circle class="cls-6" cx="296.54" cy="121.89" r="1.5"/><circle class="cls-6" cx="296.54" cy="126.89" r="1.5"/><circle class="cls-6" cx="321.55" cy="116.89" r="1.5"/><circle class="cls-6" cx="321.55" cy="121.89" r="1.5"/><circle class="cls-6" cx="321.55" cy="126.89" r="1.5"/><circle class="cls-6" cx="346.56" cy="116.89" r="1.5"/><circle class="cls-6" cx="346.56" cy="121.89" r="1.5"/><circle class="cls-6" cx="346.56" cy="126.89" r="1.5"/><circle class="cls-6" cx="371.57" cy="116.89" r="1.5"/><circle class="cls-6" cx="371.57" cy="121.89" r="1.5"/><circle class="cls-6" cx="371.57" cy="126.89" r="1.5"/><circle class="cls-6" cx="396.58" cy="116.89" r="1.5"/><circle class="cls-6" cx="396.58" cy="121.89" r="1.5"/><circle class="cls-6" cx="396.58" cy="126.89" r="1.5"/><line class="cls-6" x1="214.1" y1="24.09" x2="144.43" y2="34.02"/><line class="cls-6" x1="214.1" y1="24.09" x2="286.17" y2="34.02"/><line class="cls-6" x1="144.43" y1="45.35" x2="86.24" y2="55.28"/><line class="cls-6" x1="144.43" y1="45.35" x2="171.28" y2="55.28"/><line class="cls-6" x1="286.17" y1="45.35" x2="256.32" y2="55.28"/><line class="cls-6" x1="286.17" y1="45.35" x2="337.5" y2="55.28"/><line class="cls-6" x1="86.24" y1="66.61" x2="45.74" y2="79.37"/><line class="cls-6" x1="86.24" y1="66.61" x2="94.5" y2="79.37"/><line class="cls-6" x1="171.28" y1="66.61" x2="140.23" y2="79.37"/><line class="cls-6" x1="171.28" y1="66.61" x2="187.47" y2="79.37"/><line class="cls-6" x1="256.32" y1="66.61" x2="234.72" y2="79.37"/><line class="cls-6" x1="256.32" y1="66.61" x2="281.97" y2="79.37"/><line class="cls-6" x1="341.36" y1="66.61" x2="329.19" y2="79.37"/><line class="cls-6" x1="341.36" y1="66.61" x2="376.45" y2="79.37"/><line class="cls-6" x1="45.74" y1="87.87" x2="21.41" y2="102.05"/><line class="cls-6" x1="45.74" y1="87.87" x2="46.42" y2="102.05"/><line class="cls-6" x1="94.5" y1="87.87" x2="71.43" y2="102.05"/><line class="cls-6" x1="94.5" y1="87.87" x2="96.45" y2="102.05"/><line class="cls-6" x1="140.23" y1="87.87" x2="121.46" y2="102.05"/><line class="cls-6" x1="140.23" y1="87.87" x2="146.47" y2="101.5"/><line class="cls-6" x1="187.47" y1="87.87" x2="171.48" y2="102.05"/><line class="cls-6" x1="187.47" y1="87.87" x2="197.09" y2="102.05"/><line class="cls-6" x1="234.72" y1="87.87" x2="221.5" y2="102.05"/><line class="cls-6" x1="234.72" y1="87.87" x2="246.51" y2="102.05"/><line class="cls-6" x1="281.97" y1="87.87" x2="271.53" y2="102.05"/><line class="cls-6" x1="281.97" y1="87.87" x2="296.54" y2="102.05"/><line class="cls-6" x1="329.19" y1="87.87" x2="321.55" y2="102.05"/><line class="cls-6" x1="329.19" y1="87.87" x2="346.56" y2="102.05"/><line class="cls-6" x1="376.45" y1="87.87" x2="371.57" y2="102.05"/><line class="cls-6" x1="376.45" y1="87.87" x2="396.58" y2="102.05"/></svg>